<svg width="27" height="25" viewBox="0 0 27 25" fill="none" xmlns="http://www.w3.org/2000/svg">
<path fill-rule="evenodd" clip-rule="evenodd" d="M19.1772 18.2322C22.4339 14.0476 22.8401 7.0784 18.9938 3.23211C14.8282 -0.933487 8.07446 -0.933489 3.90886 3.2321C-0.256729 7.3977 -0.256731 14.1515 3.90886 18.317C7.75516 22.1633 14.3155 22.2568 18.5001 19.0002L25 24.5002C25.5207 25.0209 25.4793 25.0209 26 24.5002C26.5207 23.9795 26.1979 24.2529 25.6772 23.7322L19.1772 18.2322ZM17.9926 4.43503C21.1168 7.55922 21.1168 14.1917 17.9926 17.3159C14.8684 20.4401 8.32439 20.4401 5.2002 17.3159C2.076 14.1917 2.05272 7.3563 5.17691 4.2321C8.30111 1.10791 14.8685 1.31083 17.9926 4.43503Z" fill="white"/>
</svg>
